<svg id="gatsby_firebase" data-name="gatsby+firebase" xmlns="http://www.w3.org/2000/svg" xmlns:xlink="http://www.w3.org/1999/xlink" viewBox="0 0 1388.99 166.31"><defs><style>.cls-1,.cls-8{fill:#040000;}.cls-1,.cls-6{isolation:isolate;}.cls-2{fill:#f49c19;}.cls-3{fill:#ea7a13;}.cls-4{fill:#f5c432;}.cls-5,.cls-9{fill:#fff;}.cls-5{fill-opacity:0.2;}.cls-6{fill:#9d2b24;opacity:0.2;}.cls-7{fill:url(#未命名漸層_2);}.cls-10{fill:#5f338f;}.cls-11{fill:#231815;}</style><linearGradient id="未命名漸層_2" x1="503.89" y1="658.25" x2="505.21" y2="657.29" gradientTransform="matrix(95, 0, 0, -131, -46976, 86416)" gradientUnits="userSpaceOnUse"><stop offset="0" stop-color="#fff" stop-opacity="0.1"/><stop offset="0.14" stop-color="#fff" stop-opacity="0.08"/><stop offset="0.61" stop-color="#fff" stop-opacity="0.02"/><stop offset="1" stop-color="#fff" stop-opacity="0"/></linearGradient></defs><path class="cls-1" d="M1075,284.43h-11.13v-86h50.56V209H1075v28.23h35.56v10.32H1075v36.86Zm60.36-73.6a7.92,7.92,0,0,1-9.95,1,7.78,7.78,0,0,1-2.92-9.49,7.89,7.89,0,0,1,15.17,3,7.47,7.47,0,0,1-2.31,5.52Zm0,73.6h-11.13V225.6h11.13v58.83Zm24.43,0h-11.13V225.6h10.64v9.6h.48a15.06,15.06,0,0,1,7-7.92,20.07,20.07,0,0,1,10.23-3.13,21.21,21.21,0,0,1,8.34,1.45l-4.23,10.32a17.05,17.05,0,0,0-5.93-.85,14.56,14.56,0,0,0-10.7,4.75q-4.67,4.74-4.66,12.43v32.18Zm56,1.88q-13.43,0-21.83-8.88T1185.57,255a32.27,32.27,0,0,1,8.16-22.1,26.59,26.59,0,0,1,20.87-9.25q13.19,0,21.11,8.53t7.92,22.81l-.12,2.05h-46.83q.48,8.88,6,14.07a18.24,18.24,0,0,0,12.88,5.16q12,0,16.21-10.08l9.92,4.08a26.45,26.45,0,0,1-9.55,11.46q-6.66,4.56-16.32,4.56Zm16-38.46a15.57,15.57,0,0,0-4.66-9.61q-4.3-4.56-12.78-4.46a16,16,0,0,0-10.71,3.84,19.66,19.66,0,0,0-6.23,10.32l34.38-.09Zm52.07,38.46a25.33,25.33,0,0,1-12.11-2.82,20.48,20.48,0,0,1-8-7.2h-.48v8.14h-10.65v-86h11.13V225.6l-.48,8.16h.48a20.58,20.58,0,0,1,8-7.21,25.35,25.35,0,0,1,12.11-2.88q11.49,0,19.85,9T1312,255q0,13.33-8.34,22.34t-19.85,9ZM1282,276.22a17.76,17.76,0,0,0,13.3-5.82q5.57-5.83,5.57-15.43t-5.57-15.43a18.25,18.25,0,0,0-26.67-.06q-5.49,5.76-5.5,15.49t5.56,15.53a17.79,17.79,0,0,0,13.34,5.77l0,0Zm58.34,10.09q-9.45,0-15.78-5.41a17.89,17.89,0,0,1-6.35-14.28,17.61,17.61,0,0,1,7.5-15.07q7.51-5.46,18.51-5.46,9.79,0,16.06,3.61V248a13.08,13.08,0,0,0-4.48-10.39,16.13,16.13,0,0,0-11-3.85,17.2,17.2,0,0,0-8.77,2.28,11.8,11.8,0,0,0-5.38,6.24L1320.54,238q2.06-5.29,8.12-9.83c4-3,9.35-4.52,16-4.5q11.34,0,18.9,6.56t7.5,18.61v35.61h-10.67v-8.16h-.49q-6.66,10-19.47,10Zm1.82-10.09a18.13,18.13,0,0,0,12.53-5.05,15.79,15.79,0,0,0,5.67-12.07q-4.73-3.84-14.18-3.84-8.1,0-12.22,3.48a10.45,10.45,0,0,0-4.11,8.16,7.86,7.86,0,0,0,3.78,6.85,15,15,0,0,0,8.53,2.52v0Zm61.57,10.09q-9.93,0-16.39-4.81a28.43,28.43,0,0,1-9.45-12l9.92-4.08q4.73,11,16.07,11.05a14.81,14.81,0,0,0,8.5-2.28,7,7,0,0,0,3.33-6q0-5.76-8.12-7.8l-12-2.88a28.55,28.55,0,0,1-10.77-5.46,13.09,13.09,0,0,1-5.08-10.86q0-7.8,7-12.67a28.09,28.09,0,0,1,16.51-4.85,27.66,27.66,0,0,1,14,3.55,20,20,0,0,1,8.82,10.15l-9.66,3.92q-3.27-7.8-13.56-7.8a15.91,15.91,0,0,0-8.34,2,6.2,6.2,0,0,0-3.38,5.53q0,5,7.86,6.84l11.73,2.77q8.34,1.88,12.34,6.57a15.9,15.9,0,0,1,4,10.56,16.34,16.34,0,0,1-6.53,13.21q-6.54,5.31-16.82,5.31Zm59.87,0q-13.42,0-21.83-8.88T1433.4,255a32.24,32.24,0,0,1,8.17-22.09,26.57,26.57,0,0,1,20.89-9.21q13.23,0,21.11,8.53t7.92,22.81l-.12,2.05h-46.86q.48,8.88,6,14.07a18.19,18.19,0,0,0,12.91,5.14q12,0,16.2-10.08l9.93,4.08a26.4,26.4,0,0,1-9.56,11.46q-6.66,4.57-16.34,4.58Zm16-38.46q-.36-5.06-4.66-9.61t-12.77-4.46a16,16,0,0,0-10.71,3.84,19.66,19.66,0,0,0-6.23,10.32l34.37-.09Z" transform="translate(-102.51 -156.84)"/><path class="cls-2" d="M897.43,291,917.9,160a3.78,3.78,0,0,1,7.07-1.2l21.17,39.49,8.43-16.07a3.79,3.79,0,0,1,6.7,0L1018.4,291Z" transform="translate(-102.51 -156.84)"/><path class="cls-3" d="M968.15,240l-22-41.7L897.43,291Z" transform="translate(-102.51 -156.84)"/><path class="cls-4" d="M1018.4,291l-15.68-97a3.78,3.78,0,0,0-6.4-2L897.43,291l54.72,30.69a11.32,11.32,0,0,0,11.05,0L1018.4,291Z" transform="translate(-102.51 -156.84)"/><path class="cls-5" d="M1002.72,194a3.78,3.78,0,0,0-6.4-2l-19.63,19.67-15.43-29.38a3.78,3.78,0,0,0-6.69,0l-8.44,16.07L925,158.84a3.78,3.78,0,0,0-7.07,1.21L897.43,291h-.07l.07.08.54.26,98.32-98.44a3.79,3.79,0,0,1,6.41,2l15.55,96.16.15-.1-15.68-97ZM897.61,290.85,917.9,161a3.78,3.78,0,0,1,7.07-1.21l21.17,39.48,8.43-16.06a3.79,3.79,0,0,1,6.7,0L976.39,212l-78.78,78.9Z" transform="translate(-102.51 -156.84)"/><path class="cls-6" d="M963.2,320.79a11.32,11.32,0,0,1-11.05,0l-54.59-30.6-.13.84,54.72,30.68a11.32,11.32,0,0,0,11.05,0L1018.4,291l-.14-.87L963.2,320.79Z" transform="translate(-102.51 -156.84)"/><path id="b" class="cls-7" d="M1002.56,194a3.76,3.76,0,0,0-6.37-2l-19.56,19.67-15.38-29.37a3.76,3.76,0,0,0-6.67,0l-8.41,16.06-21.1-39.47a3.76,3.76,0,0,0-7,1.21L897.64,291l54.53,30.66a11.26,11.26,0,0,0,11,0l55-30.66-15.63-97Z" transform="translate(-102.51 -156.84)"/><path class="cls-8" d="M472.38,228.24h16.47V287H472.38V279.4c-5.88,8.82-13.52,9.41-18.22,9.41-18.23,0-30-14.12-30-31.17,0-17.64,11.76-31.16,28.81-31.16,4.7,0,13.52.58,18.82,9.4v-7.64Zm-30.57,29.4c0,9.41,6.46,16.47,16.46,16.47a16.08,16.08,0,0,0,16.47-16.47c0-9.41-6.47-16.46-16.47-16.46A16.07,16.07,0,0,0,441.81,257.64Zm79.38-15.29V287H504.73V242.35h-6.47V228.24h6.47v-20h16.46v20h11.17v14.11Zm50,0c-4.12-3.53-7.65-4.11-9.41-4.11-4.12,0-6.47,1.76-6.47,4.7,0,1.76.59,3.53,5.29,5.29l4.12,1.18c4.7,1.76,11.76,3.53,14.7,8.23a16.85,16.85,0,0,1,2.94,10,18.89,18.89,0,0,1-6.47,14.7,26,26,0,0,1-17.64,6.47c-12.35,0-18.82-5.88-22.94-10l8.83-10c3.52,3.53,8.23,7.06,12.93,7.06s8.24-2.35,8.24-6.47c0-3.53-2.95-5.29-5.3-5.88l-3.53-1.17c-4.11-1.77-8.82-3.53-12.34-7.06a15.06,15.06,0,0,1-4.71-11.17,19.38,19.38,0,0,1,5.88-13.53c4.71-3.53,10.59-4.11,15.29-4.11a29.61,29.61,0,0,1,18.82,6.46Zm35.87-6.47a22.3,22.3,0,0,1,18.81-9.4c17.06,0,28.82,13.52,28.82,31.16s-11.76,31.17-29.4,31.17a22.58,22.58,0,0,1-18.82-9.41V287H590.58V188.25h16.47Zm-1.77,21.76c0,9.41,6.47,16.47,16.47,16.47a16.08,16.08,0,0,0,16.46-16.47c0-9.41-6.47-16.46-16.46-16.46S605.28,248.23,605.28,257.64Zm76.45,20.58-28.23-50h19.41l18.23,33.52,16.46-33.52h18.82l-47,90H660.56Zm-261.68-40H378.89V254.7h21.75c-3.52,11.17-11.76,18.82-27.05,18.82-17,0-29.4-14.11-29.4-31.17S356,210.6,373,210.6A31.76,31.76,0,0,1,397.7,223l13.53-8.82A46.56,46.56,0,0,0,373,194.72c-25.88,0-47.05,21.17-47.05,47.63S346,290,373,290s47-21.17,47-47.63C420.64,240.59,420.05,239.41,420.05,238.24Z" transform="translate(-102.51 -156.84)"/><path class="cls-9" d="M249.52,240H208.35v11.76h28.23A53.31,53.31,0,0,1,202.47,290l-67.62-67.62a52.9,52.9,0,0,1,50-35.28,54.31,54.31,0,0,1,43.52,22.34l8.82-7.64a64.84,64.84,0,0,0-52.34-26.46c-30.58,0-56.45,21.75-62.92,50.57l77.62,77.62C227.76,296.45,249.52,270.58,249.52,240Zm-129.37.59A62.85,62.85,0,0,0,139,285.28a63.85,63.85,0,0,0,44.7,18.82Z" transform="translate(-102.51 -156.84)"/><path class="cls-10" d="M184.83,157.67A82.33,82.33,0,1,0,267.16,240,82.57,82.57,0,0,0,184.83,157.67ZM139,285.87a63.87,63.87,0,0,1-18.81-44.69l64.09,63.5C167.78,304.1,151.31,298.22,139,285.87Zm60,17.05-77-77c6.47-28.82,32.34-50.57,62.92-50.57a64.84,64.84,0,0,1,52.34,26.46l-8.82,7.64a54.31,54.31,0,0,0-43.52-22.34c-22.93,0-42.34,14.7-50,35.28L202.47,290a53.31,53.31,0,0,0,34.11-38.22H208.35V240h41.17C249.52,270.58,227.76,296.45,199,302.92Z" transform="translate(-102.51 -156.84)"/><path class="cls-11" d="M847.72,243.89H823.63v23.57h-8.16V243.89H791.38v-7.65h24.09v-23.7h8.16v23.7h24.09Z" transform="translate(-102.51 -156.84)"/></svg>