<svg xmlns="http://www.w3.org/2000/svg" xmlns:xlink="http://www.w3.org/1999/xlink" width="24" height="24" preserveAspectRatio="xMidYMid meet" viewBox="0 0 24 24" style="-ms-transform: rotate(360deg); -webkit-transform: rotate(360deg); transform: rotate(360deg);"><g fill="none"><path d="M2 5.995c0-.55.446-.995.995-.995h8.01a.995.995 0 0 1 0 1.99h-8.01A.995.995 0 0 1 2 5.995z" fill="#626262"/><path d="M2 12c0-.55.446-.995.995-.995h18.01a.995.995 0 1 1 0 1.99H2.995A.995.995 0 0 1 2 12z" fill="#626262"/><path d="M2.995 17.01a.995.995 0 0 0 0 1.99h12.01a.995.995 0 0 0 0-1.99H2.995z" fill="#626262"/></g><rect x="0" y="0" width="24" height="24" fill="rgba(0, 0, 0, 0)" /></svg>